<mxfile host="app.diagrams.net" modified="2023-12-06T11:02:32.594Z" agent="Mozilla/5.0 (Windows NT 10.0; Win64; x64) AppleWebKit/537.36 (KHTML, like Gecko) Chrome/119.0.0.0 Safari/537.36" etag="RTRkAkx3KZ2xHeFJmoVc" version="22.1.5" type="device">
  <diagram name="Page-1" id="ro96VxnxXe1gYkc0AV2B">
    <mxGraphModel dx="1434" dy="782" grid="1" gridSize="10" guides="1" tooltips="1" connect="1" arrows="1" fold="1" page="1" pageScale="1" pageWidth="827" pageHeight="1169" math="0" shadow="0">
      <root>
        <mxCell id="0" />
        <mxCell id="1" parent="0" />
        <mxCell id="enQbarZG5QIdQJkc-a3F-3" value="" style="swimlane;startSize=110;" vertex="1" parent="1">
          <mxGeometry x="100" y="300" width="180" height="70" as="geometry" />
        </mxCell>
        <mxCell id="enQbarZG5QIdQJkc-a3F-4" value="&lt;font style=&quot;font-size: 25px;&quot;&gt;USER&lt;/font&gt;" style="text;html=1;strokeColor=none;fillColor=none;align=center;verticalAlign=middle;whiteSpace=wrap;rounded=0;" vertex="1" parent="enQbarZG5QIdQJkc-a3F-3">
          <mxGeometry x="60" y="20" width="60" height="30" as="geometry" />
        </mxCell>
        <mxCell id="enQbarZG5QIdQJkc-a3F-5" value="" style="swimlane;startSize=0;" vertex="1" parent="1">
          <mxGeometry x="450" y="460" width="200" height="130" as="geometry" />
        </mxCell>
        <mxCell id="enQbarZG5QIdQJkc-a3F-8" value="" style="ellipse;whiteSpace=wrap;html=1;" vertex="1" parent="1">
          <mxGeometry x="20" y="120" width="120" height="80" as="geometry" />
        </mxCell>
        <mxCell id="enQbarZG5QIdQJkc-a3F-9" value="" style="ellipse;whiteSpace=wrap;html=1;" vertex="1" parent="1">
          <mxGeometry x="150" y="120" width="120" height="80" as="geometry" />
        </mxCell>
      </root>
    </mxGraphModel>
  </diagram>
</mxfile>
